Sinopse

O melhor filme de ação de todos os tempos... Kham, um jovem lutador, precisa ir para a Austrália recuperar seu elefante roubado. Com a ajuda de um detetive, Khan tem que lutar contra todos, incluindo uma gang liderada por uma mulher maligna e seus dois guarda-costas mortais.


Format                         : Matroska
Format version                 : Version 4 / Version 2
File size                      : 958 MiB
Duration                       : 1h 29mn
Overall bit rate               : 1 489 Kbps
Encoded date                   : UTC 2013-06-15 15:33:27
Writing application            : mkvmerge v6.2.0 ('Promised Land') built on Apr 28 2013 12:22:01
Writing library                : libebml v1.3.0 + libmatroska v1.4.0

Video
ID                             : 1
Format                         : AVC
Format/Info                    : Advanced Video Codec
Format profile                 : High@L4.1
Format settings, CABAC         : Yes
Format settings, ReFrames      : 4 frames
Codec ID                       : V_MPEG4/ISO/AVC
Duration                       : 1h 29mn
Bit rate                       : 1 236 Kbps
Width                          : 704 pixels
Height                         : 384 pixels
Display aspect ratio           : 1.85:1
Frame rate mode                : Constant
Frame rate                     : 29.970 fps
Color space                    : YUV
Chroma subsampling             : 4:2:0
Bit depth                      : 8 bits
Scan type                      : Progressive
Bits/(Pixel*Frame)             : 0.153
Stream size                    : 795 MiB (83%)
Title                          : O Protetor - Zagor Lukas
Writing library                : x264 core 133 r2334 a3ac64b
Encoding settings              : cabac=1 / ref=3 / deblock=1:0:0 / analyse=0x3:0x113 / me=hex / subme=7 / psy=1 / psy_rd=1.00:0.00 / mixed_ref=1 / me_range=16 / chroma_me=1 / trellis=1 / 8x8dct=1 / cqm=0 / deadzone=21,11 / fast_pskip=1 / chroma_qp_offset=-2 / threads=3 / lookahead_threads=1 / sliced_threads=0 / nr=0 / decimate=1 / interlaced=0 / bluray_compat=0 / constrained_intra=0 / bframes=3 / b_pyramid=2 / b_adapt=1 / b_bias=0 / direct=1 / weightb=1 / open_gop=0 / weightp=2 / keyint=300 / keyint_min=29 / scenecut=40 / intra_refresh=0 / rc_lookahead=40 / rc=crf / mbtree=1 / crf=23.0 / qcomp=0.60 / qpmin=0 / qpmax=69 / qpstep=4 / vbv_maxrate=24000 / vbv_bufsize=24000 / crf_max=0.0 / nal_hrd=none / ip_ratio=1.40 / aq=1:1.00
Language                       : Portuguese
Default                        : Yes
Forced                         : No

Audio
ID                             : 2
Format                         : AC-3
Format/Info                    : Audio Coding 3
Mode extension                 : CM (complete main)
Format settings, Endianness    : Big
Codec ID                       : A_AC3
Duration                       : 1h 29mn
Bit rate mode                  : Constant
Bit rate                       : 224 Kbps
Channel(s)                     : 2 channels
Channel positions              : Front: L R
Sampling rate                  : 48.0 KHz
Bit depth                      : 16 bits
Compression mode               : Lossy
Stream size                    : 144 MiB (15%)
Title                          : por
Language                       : Portuguese
Default                        : Yes
Forced                         : No

Text #1
ID                             : 3
Format                         : VobSub
Muxing mode                    : zlib
Codec ID                       : S_VOBSUB
Codec ID/Info                  : The same subtitle format used on DVDs
Language                       : Portuguese
Default                        : No
Forced                         : No

Text #2
ID                             : 4
Format                         : VobSub
Muxing mode                    : zlib
Codec ID                       : S_VOBSUB
Codec ID/Info                  : The same subtitle format used on DVDs
Title                          : Credito
Language                       : Portuguese
Default                        : Yes
Forced                         : No

Text #3
ID                             : 5
Format                         : ASS
Codec ID                       : S_TEXT/ASS
Codec ID/Info                  : Advanced Sub Station Alpha
Compression mode               : Lossless
Default                        : No
Forced                         : No

Menu
00:00:00.000                   : en:Chapter 01
00:07:24.500                   : en:Chapter 02
00:13:52.500                   : en:Chapter 03
00:21:43.000                   : en:Chapter 04
00:29:18.000                   : en:Chapter 05
00:36:56.000                   : en:Chapter 06
00:44:48.500                   : en:Chapter 07
00:51:49.500                   : en:Chapter 08
00:58:49.500                   : en:Chapter 09
01:07:41.500                   : en:Chapter 10
01:16:51.000                   : en:Chapter 11
01:22:34.500                   : en:Chapter 12

